<?xml version="1.0" encoding="utf-8"?>
<!-- Generator: Adobe Illustrator 25.0.0, SVG Export Plug-In . SVG Version: 6.00 Build 0)  -->
<svg version="1.1" id="Camada_1" xmlns="http://www.w3.org/2000/svg" xmlns:xlink="http://www.w3.org/1999/xlink" x="0px" y="0px"
	 viewBox="0 0 406 306" style="enable-background:new 0 0 406 306;" xml:space="preserve">
<style type="text/css">
	.st0{fill:#231F20;}
	.st1{fill:#FFFFFF;}
	.st2{fill:#00FFFF;}
	.st3{fill:#D1D3D4;}
</style>
<g id="_232_designer_flatline">
	<path class="st0" d="M297.4,207.9c0,0,33.4-87.2,16.1-100.5c-17.3-13.3-89.9-7.9-93.9-3.2c-4,4.8-27.4,109.7-27.4,109.7
		L297.4,207.9z"/>
	<path class="st0" d="M192.2,214.5c-0.1,0-0.3-0.1-0.4-0.2c-0.1-0.1-0.1-0.3-0.1-0.4c1-4.3,23.5-105.1,27.6-109.9
		c2.2-2.6,21.6-5.1,42.3-5.3c12.2-0.2,41.7,0.3,52.3,8.4c7.4,5.6,6.9,24.4-1.4,55.7c-6.1,23.2-14.5,45.1-14.6,45.3
		c-0.1,0.2-0.2,0.3-0.4,0.3L192.2,214.5L192.2,214.5z M265.4,99.6h-3.8c-21.3,0.3-39.8,2.9-41.6,5c-3,3.7-19,72.4-27.2,108.8
		l104.3-6c2.1-5.7,32.5-87.1,16.2-99.6C306.3,102.6,289,99.6,265.4,99.6z M297.4,207.9L297.4,207.9z"/>
	<path class="st1" d="M161.7,132.6l-15.1,50.6c0,0,31.1,4,31.1,2.9c0-1.1,6.1-55.6,6.1-55.6L161.7,132.6z"/>
	<path class="st0" d="M176.2,186.7c-5.2,0-20.1-1.8-29.6-3c-0.3,0-0.5-0.3-0.4-0.6c0,0,0,0,0-0.1l15.1-50.6c0.1-0.2,0.2-0.3,0.4-0.4
		l22.1-2.2c0.2,0,0.3,0,0.4,0.2c0.1,0.1,0.2,0.3,0.1,0.4c-2.1,18.8-6.1,54.6-6.1,55.6c0,0.2-0.1,0.3-0.2,0.4
		C177.4,186.6,176.8,186.7,176.2,186.7z M177.2,186L177.2,186z M147.3,182.7c10.8,1.4,27.6,3.3,29.9,3c0.4-4.4,5.3-48.6,6-54.7
		l-21.1,2.1L147.3,182.7z"/>
	<path class="st1" d="M133.2,120c0.1,0.1,5.5-1.3,8.2,2s-0.8,6.3-9.5,4.6C123.2,124.9,133.2,120,133.2,120z"/>
	<path class="st0" d="M136.5,127.6c-1.6,0-3.2-0.2-4.7-0.5c-2.5-0.5-3.8-1.3-4-2.5c-0.3-2.3,4.2-4.6,5.1-5.1c0.1,0,0.2,0,0.3,0h0.3
		c1.4-0.2,5.7-0.7,8.2,2.2c1.1,1.3,1.3,2.6,0.7,3.7C141.7,126.9,139.5,127.6,136.5,127.6z M133.3,120.5c-2,1-4.6,2.8-4.4,3.9
		c0,0.4,0.5,1.1,3.1,1.6c5.9,1.2,8.9,0.1,9.6-1.2c0.4-0.9,0.1-1.9-0.6-2.5c-2.1-2.5-5.9-2-7.3-1.8
		C133.6,120.5,133.4,120.5,133.3,120.5z"/>
	<path class="st1" d="M119.8,109.4c0,0-1.1-1.3-0.4-2.1c0.5-0.6,1.5-0.7,2.1-0.2c0.1,0.1,0.2,0.2,0.3,0.4
		C121.8,107.5,120.1,108.1,119.8,109.4z"/>
	<path class="st0" d="M119.8,109.9c-0.2,0-0.3-0.1-0.4-0.2c-0.5-0.6-1.2-1.8-0.4-2.8c0.3-0.5,0.9-0.7,1.5-0.7c0.7,0,1.4,0.4,1.8,0.9
		c0.1,0.1,0.2,0.3,0.1,0.5c0,0.2-0.2,0.3-0.3,0.4c-0.4,0.1-1.5,0.7-1.7,1.5c0,0.2-0.2,0.3-0.4,0.4L119.8,109.9z M120.4,107.3
		L120.4,107.3c-0.2,0-0.5,0.1-0.6,0.3c-0.1,0.2-0.1,0.5,0,0.7c0.3-0.4,0.7-0.7,1.1-0.9C120.7,107.3,120.6,107.3,120.4,107.3
		L120.4,107.3z"/>
	<path class="st1" d="M122.2,107.4c-1.2,0.1-2.3,1-2.5,2.3l21.8,28.3c0.3-2.8,2.4-5,5.2-5.4L122.2,107.4z"/>
	<path class="st0" d="M141.5,138.5c-0.2,0-0.3-0.1-0.4-0.2L119.3,110c-0.1-0.1-0.1-0.3-0.1-0.5c0.3-1.4,1.5-2.5,3-2.6
		c0.1,0,0.3,0.1,0.4,0.2l24.5,25.2c0.1,0.1,0.2,0.3,0.1,0.5c-0.1,0.2-0.2,0.3-0.4,0.4c-2.5,0.3-4.5,2.4-4.8,5c0,0.2-0.2,0.4-0.4,0.5
		L141.5,138.5z M120.3,109.6l20.9,27.2c0.6-2.2,2.3-3.9,4.5-4.5L122,108C121.1,108.2,120.5,108.8,120.3,109.6z"/>
	<path class="st1" d="M141.5,138l7.4,3.9l0.9-0.9l-3.1-8.4C146.7,132.6,140.9,132,141.5,138z"/>
	<path class="st0" d="M148.9,142.4c-0.1,0-0.2,0-0.2-0.1l-7.4-3.9c-0.2-0.1-0.3-0.2-0.3-0.4c-0.3-1.6,0.2-3.3,1.3-4.5
		c1.2-1.1,2.8-1.6,4.5-1.5c0.2,0,0.4,0.2,0.4,0.3l3.1,8.4c0.1,0.2,0,0.4-0.1,0.6l-0.9,0.9C149.1,142.4,149,142.4,148.9,142.4z
		 M142,137.7l6.8,3.6l0.4-0.4l-2.9-7.8c-1.2,0-2.4,0.4-3.3,1.2C142.1,135.2,141.8,136.5,142,137.7z"/>
	<polygon class="st1" points="148.9,141.9 150.3,143.4 151,142.6 149.8,141 	"/>
	<path class="st0" d="M150.3,143.9c-0.1,0-0.3-0.1-0.4-0.2l-1.4-1.5c-0.1-0.1-0.1-0.2-0.1-0.4c0-0.1,0.1-0.3,0.2-0.4l0.9-0.9
		c0.2-0.2,0.5-0.2,0.7,0c0,0,0,0,0,0l1.2,1.6c0.2,0.2,0.2,0.5,0,0.6l-0.7,0.8C150.6,143.9,150.5,143.9,150.3,143.9L150.3,143.9z
		 M149.6,141.9l0.7,0.7l0,0L149.6,141.9L149.6,141.9z"/>
	<path class="st1" d="M134.6,140.3c1.2-2.4,4.2-7.6,4.9-9.8c1.9-6.1-9.3-11.8-12.9-11.8c-3.6,0-11.2,12.6-11.2,19.4s25,58.4,25,58.4
		l24-11L134.6,140.3z"/>
	<path class="st0" d="M140.5,197c-0.2,0-0.4-0.1-0.5-0.3c-1-2.1-25.1-51.9-25.1-58.7s7.6-19.9,11.7-19.9c2.8,0,9.2,3,12.2,6.9
		c1.3,1.5,1.8,3.6,1.2,5.6c-1,2.4-2.1,4.7-3.4,7c-0.5,1-1,1.9-1.4,2.6l29.7,45c0.1,0.1,0.1,0.3,0.1,0.4c0,0.1-0.1,0.3-0.3,0.3
		l-24,11C140.6,197,140.5,197,140.5,197z M126.6,119.2c-3.2,0-10.6,12.2-10.6,18.9c0,6.2,22.3,52.6,24.7,57.8l23-10.5l-29.6-44.7
		c-0.1-0.2-0.1-0.4,0-0.5c0.4-0.8,0.9-1.8,1.6-3c1.3-2.2,2.4-4.4,3.3-6.8c0.4-1.6,0-3.4-1.1-4.6
		C135.1,121.8,128.9,119.2,126.6,119.2z"/>
	<path class="st2" d="M262.3,150.5l29.6-7.5c-1-1.4-13-39.3-25.5-45.5c-11-7.3-37.1-12.2-60.2-10.5c0,0-6.1-0.2-16.8,4
		c-26,10.3-31,46.3-31,46.3l20.3,7c0,0-3.9,46.5-7.5,70.9c0,0,44.9,8.8,110.2-2C281.4,213,262.4,157.4,262.3,150.5z"/>
	<path class="st2" d="M259.8,98.5c-3.9,4.1-7,8.9-11.3,12.8c-9.3,8.2-21.5,14.8-34.3,14c-15.1-0.9-28.1-11.2-31.4-26.2
		c-2-9.4,0.1-18.1,7.3-24.8c5-4.6,11.5-7.4,18-9.1c17.5-4.7,37.1-2.2,52,8.1c2.4,1.5,4.5,3.5,6,6c3.7,6.7-0.6,13.7-5.4,18.3
		C260.6,97.8,260.2,98.1,259.8,98.5z"/>
	<path class="st0" d="M208.5,109.1c-0.2,0-3,3.4-3.1,3.5c1.6,6,3.3,13.8,10.1,14.6c13.8,1.6,15.9-16.8,18.5-25.5
		C224.4,104.4,217.6,105.4,208.5,109.1z"/>
	<path class="st0" d="M217,127.8c-0.6,0-1.1,0-1.7-0.1c-6.8-0.8-8.7-8.1-10.3-14l-0.3-1c-0.1-0.2,0-0.4,0.2-0.5
		c0.2-0.2,0.9-1,1.4-1.6c1.6-1.8,1.6-1.8,1.8-1.9l0,0c5.6-2.2,11.4-3.9,17.3-5.3c2.6-0.6,5.3-1.3,8.2-2.2c0.2,0,0.4,0,0.5,0.1
		c0.1,0.1,0.2,0.3,0.1,0.5c-0.4,1.3-0.8,2.8-1.2,4.4C231.1,114.9,227.9,127.8,217,127.8z M205.9,112.7l0.2,0.7
		c1.6,5.9,3.3,12.6,9.4,13.2c11.3,1.3,14.5-11.4,16.8-20.7c0.3-1.3,0.6-2.5,0.9-3.6c-2.6,0.7-5.1,1.3-7.4,1.9
		c-5.8,1.3-11.5,3.1-17.1,5.2c-0.2,0.2-0.9,1-1.4,1.6C206.5,112,206.1,112.5,205.9,112.7L205.9,112.7z M205.3,112.6L205.3,112.6z"/>
	<path class="st1" d="M221.8,38.3c-2-0.1-3.3,0.8-5.1,1.4c-3.4,1.2-5-1.6-7.9-3.2c-9.5-4.9-21.1-2.5-27.9,5.8
		c-2,2.4-3.3,5.3-3.8,8.4c-0.4,3.5,0.6,7.1-0.1,10.6c-0.8,4.1-3.5,7.4-7.4,8.9c3.2,0.3,6.5-0.1,9.7-0.9c-1.8,2.2-4.5,3.5-7.3,3.5
		c3.2,2.5,7.2,3.8,11.3,3.8l-7.2,1.7c6.1,3.9,13.5,5.1,20.7,4.8c14.3-0.7,38.2-6.6,37.8-25.1C234.5,51,230.6,38.7,221.8,38.3z"/>
	<path class="st0" d="M194.4,83.7c-5.5,0-12.5-1-18.5-4.9c-0.2-0.1-0.3-0.3-0.2-0.5c0-0.2,0.2-0.4,0.4-0.4l4-0.9
		c-3-0.5-5.9-1.8-8.3-3.6c-0.2-0.2-0.3-0.5-0.1-0.7c0.1-0.1,0.2-0.2,0.4-0.2c2.1,0,4.1-0.8,5.7-2.1c-2.6,0.5-5.4,0.7-8.1,0.5
		c-0.2,0-0.4-0.2-0.5-0.4c0-0.2,0.1-0.5,0.3-0.5c3.7-1.4,6.4-4.7,7.1-8.5c0.2-1.8,0.3-3.7,0.1-5.5c-0.2-1.7-0.2-3.4,0-5.1
		c0.5-3.2,1.8-6.2,3.9-8.7c6.9-8.5,18.8-11,28.5-6c0.9,0.5,1.7,1,2.5,1.6c1.6,1.2,2.9,2.2,5.1,1.5c0.5-0.2,0.9-0.3,1.3-0.5
		c1.2-0.6,2.6-1,4-0.9l0,0c8.8,0.4,13.2,12.3,13.3,20.2c0.2,8.4-4.4,15-13.7,19.7c-9.3,4.6-20.3,5.7-24.6,5.9
		C196.1,83.7,195.3,83.7,194.4,83.7z M177.5,78.7c6.6,3.8,14.1,4.3,19.3,4.1c4.2-0.2,15-1.2,24.2-5.8c8.9-4.4,13.3-10.7,13.1-18.7
		c-0.2-7.6-4.2-18.9-12.4-19.3c-1.2,0-2.5,0.3-3.6,0.9c-0.4,0.2-0.9,0.4-1.4,0.5c-2.6,0.9-4.3-0.3-6-1.6c-0.7-0.6-1.5-1.1-2.3-1.5
		c-9.3-4.8-20.7-2.5-27.2,5.7c-2,2.3-3.2,5.1-3.7,8.1c-0.2,1.6-0.2,3.2,0,4.9c0.2,1.9,0.2,3.8-0.1,5.7c-0.6,3.5-2.8,6.6-5.9,8.4
		c2.5,0,5.1-0.3,7.5-1c0.2-0.1,0.4,0,0.6,0.2c0.1,0.2,0.1,0.4,0,0.6c-1.6,1.9-3.8,3.2-6.3,3.6c2.9,1.9,6.4,2.9,9.9,2.9
		c0.3,0,0.5,0.2,0.5,0.4c0,0.3-0.1,0.5-0.4,0.6L177.5,78.7z"/>
	<path class="st1" d="M204.3,95.1l1,17.5c0,0,8,9.1,18.3,3.5c10.3-5.6,9.9-14.5,9.9-14.5l-6.7-32.8c0,0-9.3-2.2-11.7-20.5
		c-8,6.3-17.5,10.3-27.5,11.7c0,0,0.2,20.6,3.8,28.7C195,96.8,204.3,95.1,204.3,95.1z"/>
	<path class="st0" d="M216.9,118.4c-7,0-11.8-5.4-11.9-5.5c-0.1-0.1-0.1-0.2-0.1-0.3l-1-16.9c-2.1,0.2-9.8,0.4-13-6.8
		c-3.6-8.1-3.8-28.1-3.8-28.9c0-0.3,0.2-0.5,0.4-0.5c10-1.4,19.4-5.3,27.3-11.6c0.1-0.1,0.3-0.2,0.5-0.1c0.2,0.1,0.3,0.2,0.3,0.4
		c1.2,9.3,4.2,14.3,6.5,16.8c1.3,1.5,2.9,2.7,4.8,3.3c0.2,0,0.3,0.2,0.4,0.4l6.8,32.8c0,0.2,0.3,9.4-10.1,15.1
		C221.7,117.7,219.3,118.4,216.9,118.4z M205.8,112.3c1,1.1,8.3,8.4,17.5,3.3c9.9-5.4,9.6-14,9.6-14.1l-6.7-32.5
		c-1.7-0.6-9.3-3.9-11.6-20c-7.8,5.9-17,9.7-26.6,11.2c0,3,0.5,20.8,3.7,28.1c3.4,7.7,12.1,6.2,12.5,6.2c0.1,0,0.3,0,0.4,0.1
		c0.1,0.1,0.2,0.2,0.2,0.4L205.8,112.3z"/>
	<path class="st1" d="M223,78c2.4,0.4,4.8-0.2,6.8-1.7c2.7-2.1,4-5.5,3.6-8.9c-0.1-1.2-0.4-2.5-1-3.5c-0.6-1.1-1.6-1.9-2.9-2.2
		c-1.5-0.1-3,0.3-4.2,1.1c-2,1-2,2.1-3.1,3.8c0.1-0.2,0.2-0.6,0.3-0.7"/>
	<path class="st0" d="M224.3,78.6c-0.5,0-1,0-1.4-0.1c-0.3,0-0.5-0.3-0.4-0.6c0-0.3,0.3-0.5,0.6-0.4c0,0,0,0,0,0
		c2.2,0.3,4.5-0.2,6.4-1.6c2.5-2,3.8-5.2,3.4-8.4c0-1.2-0.3-2.3-0.9-3.3c-0.5-1-1.4-1.6-2.5-1.9c-1.3-0.2-2.5,0.4-3.9,1.1
		c-1,0.5-1.7,1.3-2.1,2.3c-0.2,0.4-0.4,0.8-0.8,1.3c0,0,0,0.1-0.1,0.1c-0.2,0.2-0.5,0.2-0.7,0.1c-0.2-0.2-0.3-0.5-0.1-0.7l0,0
		c0,0,0-0.1,0.1-0.2c0.1-0.2,0.1-0.4,0.3-0.5c0.1-0.1,0.1-0.1,0.2-0.1l0.2-0.4c0.5-1.2,1.4-2.1,2.6-2.7c1.2-0.6,2.9-1.5,4.5-1.2
		c1.4,0.3,2.6,1.2,3.3,2.4c0.6,1.2,1,2.4,1,3.8c0.4,3.6-1,7.1-3.8,9.3C228.3,77.9,226.4,78.6,224.3,78.6z"/>
	<path class="st0" d="M204.9,104.3c4.1-0.3,7.7-2.6,9.8-6.1c3.6-6,2.2-9.8,2.2-9.8s-4.8,6.2-12.4,6.7L204.9,104.3z"/>
	<path class="st0" d="M204.9,104.8c-0.3,0-0.5-0.2-0.5-0.5l-0.5-9.1c0-0.3,0.2-0.5,0.5-0.5c0,0,0,0,0,0c7.3-0.5,12-6.4,12.1-6.5
		c0.1-0.1,0.3-0.2,0.5-0.2c0.2,0,0.3,0.2,0.4,0.3c0.1,0.2,1.5,4.1-2.2,10.2C212.9,102.2,209.1,104.6,204.9,104.8L204.9,104.8z
		 M204.9,95.5l0.5,8.2c3.7-0.5,6.9-2.6,8.8-5.8c2.4-4.1,2.5-7,2.3-8.4C213.4,92.8,209.3,95,204.9,95.5z"/>
	<path class="st1" d="M203,67.3c0,0-3.8,10-2.1,11.2c1.7,1.2,5.4-0.7,5.4-0.7"/>
	<path class="st0" d="M202.4,79.4c-0.6,0-1.3-0.1-1.8-0.5c-1.9-1.3,1-9.4,1.9-11.8c0.1-0.3,0.4-0.4,0.6-0.3c0.3,0.1,0.4,0.4,0.3,0.7
		c0,0,0,0,0,0c-1.8,4.7-3,10-2.3,10.6c1.2,0.8,3.9-0.2,4.8-0.7c0.2-0.1,0.6,0,0.7,0.2c0.1,0.2,0,0.6-0.2,0.7
		C205.2,78.9,203.9,79.3,202.4,79.4z"/>
	<ellipse transform="matrix(0.9515 -0.3075 0.3075 0.9515 -9.8414 67.6859)" class="st0" cx="209.8" cy="65.1" rx="1.5" ry="2.1"/>
	
		<ellipse transform="matrix(0.9999 -1.361315e-02 1.361315e-02 0.9999 -0.9115 2.678)" class="st0" cx="196.3" cy="68.3" rx="1.5" ry="2.1"/>
	<path class="st0" d="M204.2,91.4c-1,0-1.9-0.3-2.7-0.8c-3.2-2.3-3.4-7.5-3.4-7.7c0-0.2,0.2-0.5,0.4-0.5c13.1-2.9,13.3-2.8,13.5-2.6
		c0.1,0.1,0.2,0.2,0.2,0.4l0,0c0.2,2-0.1,4.1-0.8,6c-0.9,2.4-2.9,4.2-5.3,5C205.4,91.3,204.8,91.4,204.2,91.4z M199.1,83.3
		c0.1,1.2,0.7,4.8,3,6.5c1.1,0.7,2.5,0.8,3.7,0.4c2.1-0.7,3.9-2.3,4.7-4.4c0.6-1.6,0.9-3.3,0.8-5.1C209.4,81,203.3,82.4,199.1,83.3
		L199.1,83.3z"/>
	<path class="st0" d="M210.9,86c-1.9,4.7-6.8,5.8-9.1,4.2c0.5-1.8,1.5-3.7,3.2-4.3C206.9,85.2,209,85.3,210.9,86z"/>
	<path class="st0" d="M204.2,91.4c-1,0-1.9-0.2-2.7-0.8c-0.2-0.1-0.2-0.3-0.2-0.5c0.7-2.5,1.9-4.1,3.5-4.7c2-0.7,4.2-0.6,6.2,0.1
		c0.1,0,0.2,0.1,0.3,0.3c0.1,0.1,0.1,0.3,0,0.4c-0.9,2.4-2.9,4.2-5.3,5C205.4,91.3,204.8,91.4,204.2,91.4z M202.4,90
		c1.1,0.5,2.3,0.6,3.4,0.2c2-0.6,3.6-2,4.4-3.9c-1.6-0.5-3.4-0.5-5,0C203.9,86.8,203,88,202.4,90z"/>
	<path class="st0" d="M187.1,75.4c-1.4,0-2.7-1-3-2.4l-1.1-4.8c-0.4-1.6,0.7-3.3,2.3-3.6l11.3-2.5c1.6-0.4,3.3,0.7,3.6,2.3
		c0,0,0,0,0,0l1,4.8c0.3,1.6-0.7,3.2-2.3,3.6l0,0l-11.3,2.5C187.5,75.4,187.3,75.4,187.1,75.4z M197.3,63c-0.1,0-0.3,0-0.4,0
		l-11.3,2.5c-1.1,0.2-1.8,1.3-1.5,2.4l1.1,4.9c0.3,1.1,1.3,1.7,2.4,1.5l11.3-2.5c1.1-0.3,1.7-1.3,1.5-2.4l-1-4.8
		C199.1,63.7,198.3,63,197.3,63L197.3,63z M198.9,72.3L198.9,72.3z"/>
	<path class="st0" d="M207.2,71c-0.6,0-1.2-0.2-1.6-0.5c-0.7-0.4-1.2-1.1-1.3-1.9l-1-4.8c-0.2-0.8,0-1.6,0.4-2.3
		c0.4-0.7,1.1-1.2,1.9-1.3l11.3-2.5c1.6-0.4,3.3,0.7,3.6,2.3c0,0,0,0,0,0l1,4.8c0.4,1.6-0.6,3.3-2.3,3.6l-11.3,2.5
		C207.7,71,207.5,71,207.2,71z M217.5,58.6c-0.1,0-0.3,0-0.4,0.1l-11.3,2.5c-0.5,0.1-1,0.4-1.3,0.9c-0.3,0.4-0.4,1-0.3,1.5l1.1,4.8
		c0.3,1.1,1.3,1.7,2.4,1.5l11.3-2.5l0,0c0.5-0.1,1-0.4,1.3-0.9c0.3-0.5,0.4-1,0.3-1.5l-1-4.8C219.3,59.3,218.4,58.6,217.5,58.6z"/>
	<path class="st0" d="M199.8,65c-0.1,0-0.2,0-0.3-0.1c-0.2-0.1-0.3-0.5-0.2-0.7c0.5-0.8,2-2.1,4.6-1.1c0.3,0.1,0.4,0.4,0.3,0.7
		c-0.1,0.3-0.4,0.4-0.7,0.3c-2.3-0.9-3.2,0.5-3.3,0.6C200.1,64.9,200,65,199.8,65z"/>
	<polygon class="st1" points="98.7,200.1 307.3,200.1 340.8,261.3 65.2,261.3 	"/>
	<path class="st3" d="M340.8,261.8H65.2c-0.2,0-0.3-0.1-0.4-0.2c-0.1-0.2-0.1-0.3,0-0.5l33.5-61.2c0.1-0.2,0.3-0.3,0.4-0.3h208.7
		c0.2,0,0.4,0.1,0.4,0.3l33.5,61.2c0.1,0.2,0.1,0.3,0,0.5C341.2,261.7,341,261.8,340.8,261.8z M66,260.8H340L307,200.6H99L66,260.8z
		"/>
	<path class="st1" d="M101.9,160.7l0.4-1.9c1-1.9,2.1-3.2,4.8-3.2h99.3c2.5,0,4.6,1.6,5.3,4l16.1,55.5c0.9,2.5-0.3,5.2-2.8,6.2
		l-1.8,0.4L101.9,160.7z"/>
	<path class="st0" d="M223.4,222.1c-0.1,0-0.2,0-0.2-0.1l-121.5-61c-0.2-0.1-0.3-0.3-0.3-0.6l0.4-1.9c0,0,0-0.1,0-0.1
		c1-1.8,2.2-3.5,5.2-3.5h99.3c2.7,0,5.1,1.8,5.8,4.4l16.2,55.6c0.9,2.7-0.4,5.7-3,6.8l-1.8,0.4L223.4,222.1z M102.5,160.4l121,60.7
		l1.6-0.4c2.4-1,3-3.6,2.4-5.6l-16.1-55.5c-0.6-2.1-2.6-3.6-4.8-3.6h-99.4c-2.2,0-3.2,1-4.3,2.9L102.5,160.4z"/>
	<path class="st0" d="M223.4,221.6H122c-1.4,0-2.7-1-3-2.3l-17.1-58.6c-0.2-0.8,0.2-1.6,1-1.9c0.1,0,0.3-0.1,0.4-0.1h104.1
		l17.6,60.6c0.3,0.9-0.3,1.9-1.2,2.2C223.8,221.6,223.6,221.6,223.4,221.6z"/>
	<path class="st0" d="M223.4,222.1H122c-1.7,0-3.1-1.1-3.6-2.7l-17.1-58.6c-0.3-1.1,0.3-2.2,1.4-2.5c0.2,0,0.3-0.1,0.5-0.1h104.1
		c0.2,0,0.4,0.1,0.5,0.4l17.6,60.6c0.3,1.2-0.3,2.5-1.5,2.8C223.8,222.1,223.6,222.1,223.4,222.1L223.4,222.1z M103.3,159.3
		c-0.6,0-1,0.5-1,1c0,0.1,0,0.2,0,0.2l17.1,58.6c0.3,1.2,1.4,1.9,2.6,1.9h101.4c0.4,0,0.8-0.2,1-0.5c0.2-0.3,0.3-0.7,0.2-1.1
		l-17.6-60.3H103.3z"/>
	<path class="st1" d="M206.4,196.6l-6.2,26.2c-0.7,2.9-3.2,4.9-6.2,4.9h-64.1c-3.5,0-6.4-2.9-6.4-6.4c0-0.5,0.1-1,0.2-1.5l5.4-23.3
		h-5.3l-5.2,22.1c-1.4,6.2,2.5,12.5,8.7,13.9c0.9,0.2,1.7,0.3,2.6,0.3h64.2c5.4,0,10-3.7,11.2-8.9l6.4-27.4H206.4z"/>
	<path class="st0" d="M194,233.5h-64.1c-6.7,0-12.1-5.4-12.1-12.1c0-0.9,0.1-1.9,0.3-2.8l5.2-22.1c0.1-0.2,0.3-0.4,0.5-0.4h5.4
		c0.2,0,0.3,0.1,0.4,0.2c0.1,0.1,0.1,0.3,0.1,0.4l-5.5,23.3c-0.7,3.2,1.2,6.3,4.4,7.1c0.4,0.1,0.9,0.2,1.3,0.2h64.2
		c2.7,0,5.1-1.9,5.7-4.5l6.2-26.2c0.1-0.2,0.3-0.4,0.5-0.4h5.4c0.3,0,0.5,0.2,0.5,0.5c0,0,0,0.1,0,0.1l-6.4,27.4
		C204.6,229.7,199.7,233.5,194,233.5z M124.2,197.2l-5.1,21.7c-1.4,6,2.3,11.9,8.2,13.3c0.8,0.2,1.7,0.3,2.6,0.3h64.2
		c5.2,0,9.6-3.5,10.8-8.6l6.3-26.8h-4.3l-6.1,25.8c-0.7,3.1-3.5,5.3-6.7,5.3h-64.1c-3.8,0-6.9-3.1-6.9-6.9c0-0.5,0.1-1.1,0.2-1.6
		l5.3-22.6L124.2,197.2z"/>
	<path class="st1" d="M289.1,143.2c0,0,9.1,40.3,1.6,50.6s-59.3,8.7-59.3,8.7s-8.4,10.1-15.7,9.4c-7.3-0.7-3-14.5,5.6-20.2l-1.2-4.8
		l45.7-7.3l-6.1-29"/>
	<path class="st0" d="M216.4,212.4c-0.3,0-0.5,0-0.8,0c-1.9-0.1-3.6-1.5-4-3.4c-1.1-4.5,2.5-13.1,9-17.6l-1.1-4.5
		c0-0.1,0-0.3,0.1-0.4c0.1-0.1,0.2-0.2,0.3-0.2l45.2-7.3l-6-28.4c-0.1-0.3,0.1-0.5,0.4-0.6c0,0,0,0,0,0c0.3-0.1,0.5,0.1,0.6,0.4
		c0,0,0,0,0,0l6.1,29c0,0.1,0,0.3-0.1,0.4c-0.1,0.1-0.2,0.2-0.3,0.2l-45.2,7.3l1,4.3c0.1,0.2,0,0.4-0.2,0.5
		c-6.2,4.2-9.9,12.5-8.9,16.7c0.3,1.5,1.5,2.6,3,2.6c7,0.6,15.2-9.1,15.3-9.2c0.1-0.1,0.2-0.2,0.4-0.2c0.5,0,51.8,1.5,58.9-8.5
		s-1.6-49.7-1.7-50.2c-0.1-0.3,0.1-0.6,0.4-0.6c0.3-0.1,0.6,0.1,0.6,0.4c0.4,1.7,9,40.6,1.6,51c-7.3,10.1-55.2,9-59.5,8.9
		C230.4,204.4,223.2,212.4,216.4,212.4z"/>
	<path class="st0" d="M234.7,123.3c-0.1,0-0.2,0-0.2-0.1c-0.3-0.1-0.4-0.4-0.3-0.7c0,0,0,0,0,0c7.4-15.2,26.3-25.5,26.5-25.6
		c0.2-0.1,0.6,0,0.7,0.2c0,0,0,0,0,0c0.1,0.2,0,0.6-0.2,0.7c0,0,0,0,0,0c-0.2,0.1-18.8,10.2-26,25.1
		C235,123.2,234.9,123.3,234.7,123.3z"/>
	<path class="st0" d="M203.4,122.5c-0.1,0-0.1,0-0.2,0c-17.7-8.1-19.8-26-19.8-26.1c0-0.3,0.2-0.5,0.5-0.6c0.3,0,0.5,0.2,0.6,0.4
		c0,0,0,0,0,0c0,0.2,2.1,17.4,19.3,25.2c0.3,0.1,0.4,0.4,0.3,0.7C203.8,122.4,203.6,122.6,203.4,122.5z"/>
	<path class="st0" d="M122.8,145.6c-0.3-0.1-0.4-0.4-0.4-0.7c0.1-0.2,0.2-0.3,0.4-0.4c7.7-0.2,11.4-4.6,11.4-4.6
		c0.2-0.2,0.5-0.3,0.7-0.1c0,0,0,0,0,0c0.2,0.2,0.3,0.5,0.1,0.7C134.9,140.8,131,145.3,122.8,145.6L122.8,145.6z"/>
	<path class="st0" d="M259.7,151.1c-0.2,0-0.5-0.2-0.5-0.4c0-0.2-4.8-18.9-5.4-30.1c0-0.3,0.2-0.5,0.5-0.5c0,0,0,0,0,0
		c0.3,0,0.5,0.2,0.6,0.5c0.7,11.1,5.4,29.7,5.4,29.9c0.1,0.3-0.1,0.6-0.4,0.6L259.7,151.1z"/>
	<path class="st0" d="M177.8,154.4L177.8,154.4c-0.3,0-0.5-0.3-0.5-0.5c0,0,0,0,0,0l2.5-39.4c0-0.3,0.3-0.5,0.5-0.5c0,0,0,0,0,0
		c0.3,0,0.5,0.2,0.5,0.5c0,0,0,0,0,0l-2.6,39.4C178.4,154.2,178.1,154.4,177.8,154.4z"/>
	<path class="st0" d="M267.7,132.4c-0.2,0-0.4-0.1-0.5-0.3l-4.9-9.1c-0.1-0.1-0.1-0.3,0-0.4c0-0.1,0.1-0.2,0.3-0.3l15.2-7.2
		c0.3-0.1,0.6,0,0.7,0.2c0,0,0,0,0,0c0.1,0.3,0,0.6-0.2,0.7l-14.8,7l4.4,8.2l15-4.6c0.3-0.1,0.6,0.1,0.7,0.4
		c0.1,0.3-0.1,0.6-0.4,0.7l-15.4,4.8L267.7,132.4z"/>
	<ellipse class="st1" cx="280.9" cy="240.6" rx="25.1" ry="7.5"/>
	<path class="st3" d="M280.9,248.7c-14.3,0-25.6-3.5-25.6-8c0-4.5,11.2-8,25.6-8s25.6,3.5,25.6,8
		C306.5,245.2,295.2,248.7,280.9,248.7z M280.9,233.6c-14.7,0-24.6,3.6-24.6,7s9.9,7,24.6,7s24.6-3.6,24.6-7
		S295.6,233.6,280.9,233.6z"/>
	<path class="st1" d="M262,219.1l-0.6,0.1c-1.8,0.3-3.5,1.2-4.6,2.6c-1.3,2-1.4,4.7-0.2,6.8c2.7,4.8,9.1,6.1,14.1,6.6
		c0.7,0.1,1.4,0.1,2.1-0.2c0.7-0.2,1.2-0.9,1.2-1.6c-0.1-0.6-0.5-1.1-1-1.3c-0.5-0.2-1.1-0.4-1.7-0.5c-3.1-0.5-6.4-0.9-9.2-2.3
		c-1.7-0.8-4-2.8-2.8-4.8c0.4-0.7,1-1.2,1.7-1.5c2.9-1.4,5.6-0.3,8.4,0.5c0.2,0.1,0.4,0.1,0.6,0.1c0.6-0.2,0.9-0.7,0.8-1.3
		c-0.1-1.2-1.3-2-2.5-2.5C266.4,219,264.2,218.8,262,219.1z"/>
	<path class="st0" d="M271.6,235.7c-0.3,0-0.6,0-0.9-0.1c-7.6-0.7-12.4-3-14.5-6.9c-1.3-2.3-1.3-5.1,0.2-7.3c1.2-1.5,3-2.5,4.9-2.8
		l0.6-0.1l0,0c2.3-0.3,4.6-0.1,6.8,0.7c1,0.4,2.7,1.3,2.8,2.9c0.1,0.8-0.4,1.6-1.3,1.8c-0.3,0-0.6,0-0.9-0.1l-0.7-0.2
		c-2.5-0.8-4.9-1.5-7.3-0.3c-0.6,0.3-1.2,0.7-1.5,1.3c-0.3,0.4-0.3,0.9-0.2,1.4c0.6,1.2,1.5,2.2,2.7,2.7c2.5,1.1,5.2,1.8,7.9,2.1
		l1.1,0.2c0.6,0.1,1.2,0.2,1.8,0.5c1,0.4,1.6,1.6,1.2,2.6c-0.2,0.6-0.8,1.1-1.4,1.3C272.6,235.7,272.1,235.8,271.6,235.7z
		 M262.1,219.6l-0.6,0.1c-1.7,0.3-3.2,1.1-4.3,2.4c-1.2,1.9-1.3,4.3-0.1,6.2c2,3.6,6.5,5.6,13.7,6.3c0.6,0.1,1.3,0.1,1.9-0.1
		c0.5-0.2,0.8-0.6,0.9-1.1c-0.1-0.4-0.3-0.8-0.7-0.9c-0.5-0.2-1-0.4-1.5-0.4l-1.1-0.2c-2.8-0.3-5.6-1-8.2-2.2
		c-1.5-0.7-2.6-1.8-3.3-3.3c-0.2-0.8-0.1-1.6,0.3-2.2c0.5-0.7,1.2-1.3,2-1.7c2.8-1.3,5.4-0.5,8,0.3l0.7,0.2c0.1,0.1,0.3,0.1,0.4,0.1
		c0.2,0,0.4-0.4,0.4-0.7c-0.1-1.1-1.5-1.8-2.2-2C266.4,219.6,264.2,219.3,262.1,219.6L262.1,219.6z"/>
	<path class="st1" d="M264.4,214c0,0,4.7,23.4,5.1,24.8c0.4,1.4,11.5,7.2,20.3,1.5l7.7-23.9L264.4,214z"/>
	<path class="st0" d="M281.1,243.3c-2.7,0-5.3-0.5-7.8-1.5c-1.9-0.8-4.2-2-4.4-2.9c-0.4-1.4-4.9-23.9-5.1-24.8
		c-0.1-0.3,0.1-0.5,0.4-0.6c0.1,0,0.1,0,0.2,0l33.1,2.5c0.3,0,0.5,0.2,0.5,0.5c0,0,0,0.1,0,0.1l-7.7,23.9c0,0.1-0.1,0.2-0.2,0.3
		C287.3,242.5,284.2,243.3,281.1,243.3z M265,214.5c0.8,3.8,4.6,22.9,4.9,24.1c0.1,0.3,2,1.7,5.2,2.7c3,0.9,8.9,2,14.2-1.4l7.5-23.1
		L265,214.5z"/>
	
		<ellipse transform="matrix(4.100371e-02 -0.9992 0.9992 4.100371e-02 54.9591 486.5717)" class="st0" cx="281" cy="214.7" rx="7.2" ry="16.6"/>
	<path class="st0" d="M282.2,222.4c-0.5,0-1.1,0-1.6,0c-9.6-0.4-17-4.1-16.8-8.4c0.2-4.3,7.8-7.4,17.4-7c9.6,0.4,17,4.1,16.8,8.4
		c-0.1,2.1-2,4.1-5.4,5.3C289.3,221.9,285.8,222.5,282.2,222.4z M279.7,208c-8,0-14.7,2.6-14.8,6.1c-0.1,3.6,7.1,7,15.8,7.3
		c4,0.2,7.9-0.3,11.7-1.6c2.9-1.1,4.7-2.7,4.7-4.4c0.2-3.6-7.1-7-15.8-7.3L279.7,208z"/>
	<path d="M241.2,148.9h-53.7c-0.3,0-0.5-0.2-0.5-0.5v-15.9c0-0.3,0.2-0.5,0.5-0.5h53.7c0.3,0,0.5,0.2,0.5,0.5v15.9
		C241.7,148.7,241.5,148.9,241.2,148.9z M188,147.9h52.7v-14.8H188V147.9z"/>
	<rect x="65.2" y="261.3" class="st1" width="275.6" height="10.6"/>
	<path class="st3" d="M340.8,272.4H65.2c-0.3,0-0.5-0.2-0.5-0.5v-10.6c0-0.3,0.2-0.5,0.5-0.5h275.7c0.3,0,0.5,0.2,0.5,0.5v10.6
		C341.3,272.2,341.1,272.4,340.8,272.4z M65.7,271.4h274.6v-9.6H65.7L65.7,271.4z"/>
	<path class="st1" d="M297.4,162L297.4,162c-0.3,0-0.5-0.2-0.5-0.5c0-1.2,0.7-28.7,3.8-38.2c3-9.5,8.7-13.5,9-13.7
		c0.2-0.2,0.5-0.1,0.7,0.1c0.2,0.2,0.1,0.5-0.1,0.7c-0.1,0-5.6,3.8-8.6,13.1c-3,9.3-3.7,37.6-3.7,37.9
		C298,161.8,297.7,162,297.4,162C297.4,162,297.4,162,297.4,162z"/>
</g>
</svg>
